<svg width="40" height="40" viewBox="0 0 40 40" fill="none" xmlns="http://www.w3.org/2000/svg">
<path d="M20.0007 5C21.1118 9.44444 23.334 13.0556 26.6673 15.8333C30.0007 18.6111 31.6673 21.6667 31.6673 25C31.6673 28.0942 30.4382 31.0617 28.2502 33.2496C26.0623 35.4375 23.0948 36.6667 20.0007 36.6667C16.9065 36.6667 13.939 35.4375 11.7511 33.2496C9.56315 31.0617 8.33398 28.0942 8.33398 25C8.33398 23.1969 8.9188 21.4425 10.0007 20C10.0007 21.1051 10.4396 22.1649 11.221 22.9463C12.0024 23.7277 13.0622 24.1667 14.1673 24.1667C15.2724 24.1667 16.3322 23.7277 17.1136 22.9463C17.895 22.1649 18.334 21.1051 18.334 20C18.334 16.6667 15.834 15 15.834 11.6667C15.834 9.44444 17.2229 7.22222 20.0007 5Z" stroke="black" stroke-width="2" stroke-linecap="round" stroke-linejoin="round"/>
</svg>
