<svg width="28" height="28" viewBox="0 0 28 28" fill="none" xmlns="http://www.w3.org/2000/svg">
<path d="M14.796 2.51414C14.4955 2.37708 14.1691 2.30615 13.8388 2.30615C13.5086 2.30615 13.1821 2.37708 12.8816 2.51414L2.9985 7.01173C2.79386 7.10196 2.61987 7.24975 2.49773 7.4371C2.37558 7.62445 2.31055 7.84328 2.31055 8.06693C2.31055 8.29058 2.37558 8.5094 2.49773 8.69675C2.61987 8.8841 2.79386 9.0319 2.9985 9.12213L12.8932 13.6312C13.1937 13.7683 13.5201 13.8392 13.8504 13.8392C14.1806 13.8392 14.507 13.7683 14.8075 13.6312L24.7022 9.13366C24.9068 9.04343 25.0808 8.89564 25.203 8.70829C25.3251 8.52094 25.3902 8.30211 25.3902 8.07846C25.3902 7.85481 25.3251 7.63598 25.203 7.44863C25.0808 7.26128 24.9068 7.11349 24.7022 7.02326L14.796 2.51414Z" stroke="black" stroke-width="1.67742" stroke-linecap="round" stroke-linejoin="round"/>
<path d="M2.30664 13.8389C2.3061 14.0594 2.36882 14.2755 2.48737 14.4616C2.60593 14.6476 2.77534 14.7957 2.97551 14.8883L12.8933 19.3974C13.1922 19.5328 13.5165 19.6028 13.8447 19.6028C14.1728 19.6028 14.4972 19.5328 14.7961 19.3974L24.6908 14.8998C24.8949 14.8081 25.0679 14.6589 25.1887 14.4705C25.3095 14.2821 25.3729 14.0627 25.3712 13.8389" stroke="black" stroke-width="1.67742" stroke-linecap="round" stroke-linejoin="round"/>
<path d="M2.30664 19.605C2.3061 19.8256 2.36882 20.0417 2.48737 20.2277C2.60593 20.4137 2.77534 20.5618 2.97551 20.6544L12.8933 25.1635C13.1922 25.2989 13.5165 25.3689 13.8447 25.3689C14.1728 25.3689 14.4972 25.2989 14.7961 25.1635L24.6908 20.6659C24.8949 20.5742 25.0679 20.425 25.1887 20.2366C25.3095 20.0483 25.3729 19.8288 25.3712 19.605" stroke="black" stroke-width="1.67742" stroke-linecap="round" stroke-linejoin="round"/>
</svg>
