<svg width="28" height="28" viewBox="0 0 28 28" fill="none" xmlns="http://www.w3.org/2000/svg">
<path d="M25.3712 19.6048C25.3712 20.2165 25.1282 20.8032 24.6956 21.2357C24.2631 21.6683 23.6764 21.9113 23.0647 21.9113H4.61309C4.00138 21.9113 3.41473 21.6683 2.98218 21.2357C2.54964 20.8032 2.30664 20.2165 2.30664 19.6048V10.9556C2.30664 8.07256 4.61309 5.76611 7.49616 5.76611H20.7583C23.2953 5.76611 25.3712 7.84192 25.3712 10.379V19.6048Z" stroke="black" stroke-width="1.67742" stroke-linecap="round" stroke-linejoin="round"/>
<path d="M17.2988 10.3789H20.7585V12.6854" stroke="black" stroke-width="1.67742" stroke-linecap="round" stroke-linejoin="round"/>
<path d="M7.49609 5.76611C10.3792 5.76611 12.6856 8.07256 12.6856 10.9556V19.6048C12.6856 20.2165 12.4426 20.8032 12.0101 21.2357C11.5775 21.6683 10.9909 21.9113 10.3792 21.9113" stroke="black" stroke-width="1.67742" stroke-linecap="round" stroke-linejoin="round"/>
<path d="M6.91992 11.5322H8.07315" stroke="black" stroke-width="1.67742" stroke-linecap="round" stroke-linejoin="round"/>
</svg>
