<svg width="28" height="28" viewBox="0 0 28 28" fill="none" xmlns="http://www.w3.org/2000/svg">
<path d="M17.2983 24.2174V14.9916C17.2983 14.6858 17.1768 14.3924 16.9605 14.1762C16.7442 13.9599 16.4509 13.8384 16.145 13.8384H11.5321C11.2263 13.8384 10.933 13.9599 10.7167 14.1762C10.5004 14.3924 10.3789 14.6858 10.3789 14.9916V24.2174" stroke="black" stroke-width="1.67742" stroke-linecap="round" stroke-linejoin="round"/>
<path d="M3.46094 11.5325C3.46086 11.197 3.53398 10.8655 3.67519 10.5612C3.81641 10.2568 4.02233 9.98695 4.27857 9.77038L12.3512 2.85103C12.7675 2.49919 13.2949 2.30615 13.84 2.30615C14.385 2.30615 14.9125 2.49919 15.3288 2.85103L23.4014 9.77038C23.6576 9.98695 23.8635 10.2568 24.0047 10.5612C24.146 10.8655 24.2191 11.197 24.219 11.5325V21.9115C24.219 22.5233 23.976 23.1099 23.5435 23.5424C23.1109 23.975 22.5243 24.218 21.9125 24.218H5.76739C5.15568 24.218 4.56903 23.975 4.13648 23.5424C3.70394 23.1099 3.46094 22.5233 3.46094 21.9115V11.5325Z" stroke="black" stroke-width="1.67742" stroke-linecap="round" stroke-linejoin="round"/>
</svg>
