<svg width="28" height="28" viewBox="0 0 28 28" fill="none" xmlns="http://www.w3.org/2000/svg">
<path d="M25.3712 12.1092V6.91973C25.3712 6.30802 25.1282 5.72137 24.6956 5.28883C24.2631 4.85628 23.6764 4.61328 23.0647 4.61328H4.61309C4.00138 4.61328 3.41473 4.85628 2.98218 5.28883C2.54964 5.72137 2.30664 6.30802 2.30664 6.91973V20.7584C2.30664 22.027 3.34454 23.0649 4.61309 23.0649H19.0284" stroke="black" stroke-width="1.67742" stroke-linecap="round" stroke-linejoin="round"/>
<path d="M25.3712 8.07275L15.0267 14.6461C14.6707 14.8692 14.259 14.9875 13.8389 14.9875C13.4188 14.9875 13.0071 14.8692 12.6511 14.6461L2.30664 8.07275" stroke="black" stroke-width="1.67742" stroke-linecap="round" stroke-linejoin="round"/>
<path d="M23.0645 16.1455V20.7584" stroke="black" stroke-width="1.67742" stroke-linecap="round" stroke-linejoin="round"/>
<path d="M23.0645 25.3711V25.3828" stroke="black" stroke-width="1.67742" stroke-linecap="round" stroke-linejoin="round"/>
</svg>
