<svg width="28" height="28" viewBox="0 0 28 28" fill="none" xmlns="http://www.w3.org/2000/svg">
<path d="M11.1546 4.76937C11.2181 4.10089 11.5286 3.48011 12.0254 3.02832C12.5221 2.57652 13.1695 2.32617 13.841 2.32617C14.5125 2.32617 15.1599 2.57652 15.6566 3.02832C16.1534 3.48011 16.4639 4.10089 16.5274 4.76937C16.5656 5.2012 16.7073 5.61747 16.9404 5.98295C17.1736 6.34843 17.4914 6.65236 17.8669 6.86902C18.2424 7.08567 18.6645 7.20867 19.0976 7.2276C19.5307 7.24654 19.962 7.16085 20.355 6.97779C20.9652 6.70076 21.6566 6.66068 22.2947 6.86534C22.9328 7.07 23.472 7.50476 23.8072 8.08501C24.1424 8.66526 24.2498 9.34948 24.1083 10.0045C23.9669 10.6595 23.5868 11.2385 23.042 11.6288C22.6873 11.8777 22.3977 12.2084 22.1978 12.5929C21.9978 12.9774 21.8935 13.4044 21.8935 13.8378C21.8935 14.2711 21.9978 14.6981 22.1978 15.0826C22.3977 15.4671 22.6873 15.7978 23.042 16.0468C23.5868 16.437 23.9669 17.016 24.1083 17.671C24.2498 18.326 24.1424 19.0103 23.8072 19.5905C23.472 20.1708 22.9328 20.6055 22.2947 20.8102C21.6566 21.0148 20.9652 20.9747 20.355 20.6977C19.962 20.5147 19.5307 20.429 19.0976 20.4479C18.6645 20.4668 18.2424 20.5898 17.8669 20.8065C17.4914 21.0231 17.1736 21.3271 16.9404 21.6926C16.7073 22.058 16.5656 22.4743 16.5274 22.9061C16.4639 23.5746 16.1534 24.1954 15.6566 24.6472C15.1599 25.099 14.5125 25.3493 13.841 25.3493C13.1695 25.3493 12.5221 25.099 12.0254 24.6472C11.5286 24.1954 11.2181 23.5746 11.1546 22.9061C11.1164 22.4742 10.9748 22.0577 10.7416 21.6921C10.5083 21.3265 10.1904 21.0225 9.81478 20.8058C9.43913 20.5891 9.01679 20.4662 8.58354 20.4474C8.15028 20.4285 7.71887 20.5144 7.32585 20.6977C6.71567 20.9747 6.02424 21.0148 5.38613 20.8102C4.74802 20.6055 4.20888 20.1708 3.87365 19.5905C3.53842 19.0103 3.43108 18.326 3.57252 17.671C3.71395 17.016 4.09405 16.437 4.63883 16.0468C4.99359 15.7978 5.28318 15.4671 5.4831 15.0826C5.68302 14.6981 5.78739 14.2711 5.78739 13.8378C5.78739 13.4044 5.68302 12.9774 5.4831 12.5929C5.28318 12.2084 4.99359 11.8777 4.63883 11.6288C4.09482 11.2383 3.71539 10.6596 3.57429 10.005C3.4332 9.3504 3.54051 8.66674 3.87538 8.08686C4.21025 7.50699 4.74875 7.07233 5.38623 6.86736C6.02371 6.66239 6.71462 6.70175 7.3247 6.97779C7.71767 7.16085 8.14896 7.24654 8.58206 7.2276C9.01516 7.20867 9.43733 7.08567 9.81283 6.86902C10.1883 6.65236 10.5061 6.34843 10.7392 5.98295C10.9724 5.61747 11.1141 5.2012 11.1523 4.76937" stroke="black" stroke-width="1.67742" stroke-linecap="round" stroke-linejoin="round"/>
<path d="M13.8386 17.2983C15.7493 17.2983 17.2983 15.7493 17.2983 13.8386C17.2983 11.9279 15.7493 10.3789 13.8386 10.3789C11.9279 10.3789 10.3789 11.9279 10.3789 13.8386C10.3789 15.7493 11.9279 17.2983 13.8386 17.2983Z" stroke="black" stroke-width="1.67742" stroke-linecap="round" stroke-linejoin="round"/>
</svg>
