<svg width="28" height="28" viewBox="0 0 28 28" fill="none" xmlns="http://www.w3.org/2000/svg">
<path d="M24.2181 13.8385C24.8547 13.8385 25.3771 13.3207 25.3136 12.6876C25.0478 10.04 23.8745 7.5658 21.9927 5.68445C20.111 3.8031 17.6365 2.63037 14.9888 2.36509C14.3545 2.30166 13.8379 2.82407 13.8379 3.46066V12.6865C13.8379 12.9923 13.9594 13.2856 14.1757 13.5019C14.3919 13.7182 14.6853 13.8397 14.9911 13.8397L24.2181 13.8385Z" stroke="black" stroke-width="1.67742" stroke-linecap="round" stroke-linejoin="round"/>
<path d="M24.4606 18.3243C23.7269 20.0593 22.5794 21.5882 21.1184 22.7773C19.6574 23.9663 17.9273 24.7794 16.0794 25.1454C14.2316 25.5114 12.3222 25.4191 10.5182 24.8767C8.71428 24.3343 7.07065 23.3582 5.73106 22.0338C4.39146 20.7095 3.39669 19.0771 2.83371 17.2794C2.27073 15.4818 2.15668 13.5736 2.50154 11.7217C2.84639 9.86976 3.63965 8.13052 4.81196 6.65601C5.98428 5.1815 7.49995 4.01661 9.22646 3.26318" stroke="black" stroke-width="1.67742" stroke-linecap="round" stroke-linejoin="round"/>
</svg>
