<svg width="28" height="28" viewBox="0 0 28 28" fill="none" xmlns="http://www.w3.org/2000/svg">
<path d="M11.5324 17.2983H6.91954C5.69613 17.2983 4.52282 17.7843 3.65773 18.6494C2.79264 19.5145 2.30664 20.6878 2.30664 21.9112V24.2177" stroke="black" stroke-width="1.67742" stroke-linecap="round" stroke-linejoin="round"/>
<path d="M16.498 19.0631L17.5625 18.6226" stroke="black" stroke-width="1.67742" stroke-linecap="round" stroke-linejoin="round"/>
<path d="M17.5625 15.9749L16.498 15.5332" stroke="black" stroke-width="1.67742" stroke-linecap="round" stroke-linejoin="round"/>
<path d="M19.4339 14.102L18.9922 13.0376" stroke="black" stroke-width="1.67742" stroke-linecap="round" stroke-linejoin="round"/>
<path d="M19.4339 20.4951L18.9922 21.5607" stroke="black" stroke-width="1.67742" stroke-linecap="round" stroke-linejoin="round"/>
<path d="M22.082 14.102L22.5237 13.0376" stroke="black" stroke-width="1.67742" stroke-linecap="round" stroke-linejoin="round"/>
<path d="M22.5226 21.5607L22.082 20.4951" stroke="black" stroke-width="1.67742" stroke-linecap="round" stroke-linejoin="round"/>
<path d="M23.9551 15.9749L25.0207 15.5332" stroke="black" stroke-width="1.67742" stroke-linecap="round" stroke-linejoin="round"/>
<path d="M23.9551 18.6226L25.0207 19.0642" stroke="black" stroke-width="1.67742" stroke-linecap="round" stroke-linejoin="round"/>
<path d="M20.7585 20.7582C22.6692 20.7582 24.2182 19.2093 24.2182 17.2985C24.2182 15.3878 22.6692 13.8389 20.7585 13.8389C18.8478 13.8389 17.2988 15.3878 17.2988 17.2985C17.2988 19.2093 18.8478 20.7582 20.7585 20.7582Z" stroke="black" stroke-width="1.67742" stroke-linecap="round" stroke-linejoin="round"/>
<path d="M10.3785 12.6858C12.9262 12.6858 14.9914 10.6205 14.9914 8.07286C14.9914 5.52523 12.9262 3.45996 10.3785 3.45996C7.83089 3.45996 5.76562 5.52523 5.76562 8.07286C5.76562 10.6205 7.83089 12.6858 10.3785 12.6858Z" stroke="black" stroke-width="1.67742" stroke-linecap="round" stroke-linejoin="round"/>
</svg>
