<svg width="887" height="197" viewBox="0 0 887 197" fill="none" xmlns="http://www.w3.org/2000/svg">
<path d="M2.8161 58.624C2.8161 41.5574 9.30143 27.5627 22.2721 16.64C35.4134 5.54671 52.1388 4.57764e-05 72.4481 4.57764e-05C92.7574 4.57764e-05 108.885 5.29071 120.832 15.872C132.779 26.2827 138.752 40.448 138.752 58.368H97.5361C97.5361 51.712 95.2321 46.5067 90.6241 42.752C86.0161 38.8267 79.7868 36.864 71.9361 36.864C63.4028 36.864 56.6614 38.656 51.7121 42.24C46.7628 45.824 44.2881 50.7734 44.2881 57.088C44.2881 62.72 45.8241 67.1574 48.8961 70.4C51.9681 73.472 56.8321 75.6907 63.4881 77.056L91.9041 82.944C108.971 86.3574 121.515 92.3307 129.536 100.864C137.728 109.397 141.824 121.088 141.824 135.936C141.824 154.197 135.253 168.875 122.112 179.968C108.971 190.891 91.4774 196.352 69.6321 196.352C48.4694 196.352 31.5734 191.061 18.9441 180.48C6.31476 169.899 9.77516e-05 155.733 9.77516e-05 137.984H41.2161C41.2161 144.981 43.6908 150.357 48.6401 154.112C53.5894 157.696 60.6721 159.488 69.8881 159.488C79.2748 159.488 86.6988 157.781 92.1601 154.368C97.6214 150.784 100.352 146.005 100.352 140.032C100.352 134.741 98.9868 130.645 96.2561 127.744C93.6961 124.843 89.2588 122.795 82.9441 121.6L54.0161 115.712C19.8828 108.715 2.8161 89.6854 2.8161 58.624ZM207.772 193.024L150.94 3.58405H194.204L219.036 85.76C223.132 99.4134 226.289 113.152 228.508 126.976C230.556 114.688 233.713 100.949 237.98 85.76L261.276 3.58405H307.612L329.884 85.76C333.98 101.12 337.137 114.859 339.356 126.976C342.428 111.787 345.756 98.2187 349.34 86.272L374.684 3.58405H416.924L359.068 193.024H318.62L284.06 68.608L248.476 193.024H207.772ZM482.034 3.58405V193.024H440.562V3.58405H482.034ZM598.362 130.048H563.034V193.024H521.562V3.58405H598.362C617.647 3.58405 633.178 9.38671 644.954 20.992C656.901 32.5974 662.874 47.872 662.874 66.816C662.874 85.76 656.901 101.035 644.954 112.64C633.178 124.245 617.647 130.048 598.362 130.048ZM589.146 40.448H563.034V93.184H589.146C609.114 93.184 619.098 84.3947 619.098 66.816C619.098 49.2374 609.114 40.448 589.146 40.448ZM809.382 193.024H689.062V3.58405H809.382V41.984H730.534V79.104H800.422V115.456H730.534V154.624H809.382V193.024ZM863.024 196.352C856.539 196.352 850.992 194.133 846.384 189.696C841.776 185.088 839.472 179.627 839.472 173.312C839.472 166.827 841.776 161.365 846.384 156.928C850.992 152.32 856.539 150.016 863.024 150.016C869.339 150.016 874.8 152.32 879.408 156.928C884.187 161.536 886.576 166.997 886.576 173.312C886.576 179.627 884.187 185.088 879.408 189.696C874.8 194.133 869.339 196.352 863.024 196.352Z" fill="white"/>
</svg>
