<svg width="122" height="122" viewBox="0 0 122 122" fill="none" xmlns="http://www.w3.org/2000/svg">
<rect width="122" height="122" rx="10" fill="white"/>
<path d="M33.804 52.4C33.804 48.1333 35.4253 44.6347 38.668 41.904C41.9533 39.1307 46.1347 37.744 51.212 37.744C56.2893 37.744 60.3213 39.0667 63.308 41.712C66.2947 44.3147 67.788 47.856 67.788 52.336H57.484C57.484 50.672 56.908 49.3707 55.756 48.432C54.604 47.4507 53.0467 46.96 51.084 46.96C48.9507 46.96 47.2653 47.408 46.028 48.304C44.7907 49.2 44.172 50.4373 44.172 52.016C44.172 53.424 44.556 54.5333 45.324 55.344C46.092 56.112 47.308 56.6667 48.972 57.008L56.076 58.48C60.3427 59.3333 63.4787 60.8267 65.484 62.96C67.532 65.0933 68.556 68.016 68.556 71.728C68.556 76.2933 66.9133 79.9627 63.628 82.736C60.3427 85.4667 55.9693 86.832 50.508 86.832C45.2173 86.832 40.9933 85.5093 37.836 82.864C34.6787 80.2187 33.1 76.6773 33.1 72.24H43.404C43.404 73.9893 44.0227 75.3333 45.26 76.272C46.4973 77.168 48.268 77.616 50.572 77.616C52.9187 77.616 54.7747 77.1893 56.14 76.336C57.5053 75.44 58.188 74.2453 58.188 72.752C58.188 71.4293 57.8467 70.4053 57.164 69.68C56.524 68.9547 55.4147 68.4427 53.836 68.144L46.604 66.672C38.0707 64.9227 33.804 60.1653 33.804 52.4ZM80.0435 86.832C78.4222 86.832 77.0355 86.2773 75.8835 85.168C74.7315 84.016 74.1555 82.6507 74.1555 81.072C74.1555 79.4507 74.7315 78.0853 75.8835 76.976C77.0355 75.824 78.4222 75.248 80.0435 75.248C81.6222 75.248 82.9875 75.824 84.1395 76.976C85.3342 78.128 85.9315 79.4933 85.9315 81.072C85.9315 82.6507 85.3342 84.016 84.1395 85.168C82.9875 86.2773 81.6222 86.832 80.0435 86.832Z" fill="black"/>
</svg>
