<svg width="25" height="25" viewBox="0 0 25 25" fill="none" xmlns="http://www.w3.org/2000/svg">
<path d="M10.6963 21.875C10.8791 22.1917 11.1421 22.4547 11.4588 22.6375C11.7755 22.8203 12.1348 22.9166 12.5005 22.9166C12.8661 22.9166 13.2254 22.8203 13.5421 22.6375C13.8588 22.4547 14.1218 22.1917 14.3046 21.875" stroke="black" stroke-width="1.5" stroke-linecap="round" stroke-linejoin="round"/>
<path d="M3.39813 15.9646C3.26205 16.1138 3.17225 16.2993 3.13965 16.4985C3.10705 16.6977 3.13305 16.9022 3.21449 17.0869C3.29594 17.2717 3.42931 17.4287 3.5984 17.5391C3.76748 17.6494 3.96499 17.7082 4.16688 17.7084H20.8335C21.0354 17.7084 21.233 17.6499 21.4022 17.5397C21.5714 17.4296 21.7049 17.2727 21.7866 17.0881C21.8682 16.9035 21.8945 16.6991 21.8621 16.4998C21.8298 16.3006 21.7402 16.115 21.6044 15.9657C20.219 14.5375 18.7502 13.0198 18.7502 8.33337C18.7502 6.67577 18.0917 5.08606 16.9196 3.91396C15.7475 2.74185 14.1578 2.08337 12.5002 2.08337C10.8426 2.08337 9.2529 2.74185 8.0808 3.91396C6.9087 5.08606 6.25022 6.67577 6.25022 8.33337C6.25022 13.0198 4.78042 14.5375 3.39813 15.9646Z" stroke="black" stroke-width="1.5" stroke-linecap="round" stroke-linejoin="round"/>
</svg>
